<?xml version="1.0" encoding="UTF-8"?>
<svg width="16px" height="16px" viewBox="0 0 16 16" version="1.1" xmlns="http://www.w3.org/2000/svg" xmlns:xlink="http://www.w3.org/1999/xlink">
    <title>Favicon</title>
    <g id="App-Icons" stroke="none" stroke-width="1" fill="none" fill-rule="evenodd">
        <g id="Logomark" fill="#00BDB3" transform="translate(0.941176, 0.000000)">
            <path d="M6.19686445,0.0488305736 L13.0892348,1.26414143 C13.4388355,1.32578547 13.5944593,1.38498436 13.7169478,1.46681477 L13.7814403,1.51384471 C13.9182432,1.62125902 14.0158834,1.76070363 14.0700305,1.92599421 C14.1200124,2.07857014 14.1380025,2.22443026 14.0831743,2.57093253 L12.1821112,13.3523972 L12.1484823,13.5077556 C12.0919591,13.7402634 12.0318045,13.8487125 11.9491781,13.9539455 C11.8417638,14.0907485 11.7023192,14.1883886 11.5370286,14.2425357 C11.3844527,14.2925176 11.2385926,14.3105077 10.8920903,14.2556795 L10.4879449,14.1848703 L10.5413098,14.1613005 L10.5584023,14.1511377 L10.6095521,14.1142058 C10.6732082,14.0642246 10.716359,14.0025988 10.7415544,13.925687 C10.760197,13.8687781 10.7691373,13.8141735 10.764636,13.726514 L10.7555157,13.6265266 L10.7473355,13.5658136 L10.7473355,13.5658136 L10.7232157,13.4180382 L8.85567579,2.82627606 L8.82414971,2.66361814 C8.78240226,2.47083765 8.75450473,2.40709861 8.69777711,2.33485028 C8.66029118,2.28710817 8.61625521,2.2509003 8.56413292,2.22515097 L8.50925831,2.20284799 C8.42389494,2.17488404 8.34371635,2.16875034 8.14938492,2.19706682 L8.0016095,2.22118669 L4.47911219,2.84235294 L4.79914773,1.02752235 L4.81591796,0.936865201 L4.84954685,0.781506749 C4.90607006,0.548998974 4.96622462,0.440549917 5.04885101,0.335316879 C5.15626533,0.198513928 5.29570994,0.100873763 5.46100052,0.0467266885 C5.6262911,-0.00742038595 5.78369994,-0.0240214756 6.19686445,0.0488305736 Z" id="Back" opacity="0.4"></path>
            <path d="M8.65575664,1.75564386 C8.82104722,1.80979094 8.96049183,1.9074311 9.06790614,2.04423406 C9.15879518,2.1599904 9.2224933,2.27963812 9.28407717,2.56401886 L9.31760943,2.73643953 L11.1866546,13.3363214 C11.2595066,13.7494859 11.2429056,13.9068948 11.1887585,14.0721854 C11.1346114,14.2374759 11.0369712,14.3769205 10.9001683,14.4843349 L10.8356758,14.5313648 C10.7243227,14.6057561 10.5855849,14.6614436 10.29862,14.7172679 L7.80423529,15.1569172 L7.31106499,12.3593345 C7.28764826,12.2265317 7.26517244,12.1683718 7.2338626,12.1221587 L7.21742626,12.0997575 C7.1771459,12.0484564 7.12485417,12.0118413 7.0628702,11.9915362 C7.00974108,11.9741317 6.95878347,11.9670716 6.84773896,11.9826138 L6.78692123,11.9923251 L5.59259917,12.2029163 C5.43766248,12.2302358 5.38432322,12.2562747 5.33302212,12.296555 C5.28172101,12.3368354 5.24510595,12.3891271 5.2248008,12.4511111 C5.20739638,12.5042402 5.20033626,12.5551978 5.21587841,12.6662424 L5.22558975,12.7270601 L5.71858824,15.5249172 L3.31559246,15.949349 C2.90242796,16.022201 2.74501911,16.0056 2.57972853,15.9514529 C2.41443795,15.8973058 2.27499334,15.7996656 2.16757903,15.6628627 C2.08495263,15.5576297 2.02479807,15.4491806 1.96827486,15.2166728 L1.93464597,15.0613144 C1.92906354,15.0326179 1.92347975,15.0024391 1.91787574,14.9706572 L0.0488305736,4.37077532 C-0.0240214756,3.95761082 -0.00742038595,3.80020197 0.0467266885,3.63491139 C0.100873763,3.46962081 0.198513928,3.3301762 0.335316879,3.22276189 L0.399809366,3.17573194 C0.488891889,3.11621892 0.595500529,3.06867629 0.781506749,3.02345772 L0.936865201,2.98982883 L1.02752235,2.97305861 L7.91989271,1.75774775 C8.33305721,1.6848957 8.49046606,1.70149679 8.65575664,1.75564386 Z M4.35780345,8.16788225 C4.30467434,8.15047783 4.25371672,8.14341772 4.14267221,8.15895986 L4.08185448,8.1686712 L3.05878045,8.35007922 C2.94911701,8.37345384 2.90364722,8.39751671 2.85967484,8.43204274 C2.80837373,8.47232311 2.77175867,8.52461484 2.75145352,8.58659881 C2.7340491,8.63972792 2.72698899,8.69068554 2.74253113,8.80173005 L2.75224248,8.86254778 L3.00369207,10.2885893 C3.03101159,10.443526 3.05705043,10.4968653 3.0973308,10.5481664 C3.13761117,10.5994675 3.1899029,10.6360825 3.25188687,10.6563877 C3.30501598,10.6737921 3.3559736,10.6808522 3.46701811,10.6653101 L3.52783584,10.6555987 L4.49043843,10.4858659 C4.64537511,10.4585464 4.69871437,10.4325076 4.75001548,10.3922272 C4.80131659,10.3519468 4.83793165,10.2996551 4.8582368,10.2376711 C4.87564122,10.184542 4.88270133,10.1335844 4.86715919,10.0225399 L4.85744784,9.96172215 L4.60599825,8.53568062 C4.57867873,8.38074393 4.55263988,8.32740467 4.51235952,8.27610357 C4.47207915,8.22480246 4.41978742,8.1881874 4.35780345,8.16788225 Z M8.06531499,7.51414793 C8.01218588,7.49674351 7.96122826,7.4896834 7.85018375,7.50522554 L7.78936602,7.51493689 L6.82676343,7.6846697 C6.67182675,7.71198921 6.61848749,7.73802806 6.56718638,7.77830843 C6.51588527,7.81858879 6.47927021,7.87088052 6.45896506,7.93286449 C6.44156064,7.98599361 6.43450053,8.03695122 6.45004267,8.14799573 L6.45975402,8.20881346 L6.71120361,9.63485499 C6.73852313,9.78979168 6.76456198,9.84313094 6.80484234,9.89443204 C6.84512271,9.94573315 6.89741444,9.98234821 6.95939841,10.0026534 C7.01252752,10.0200578 7.06348514,10.0271179 7.17452965,10.0115758 L7.23534738,10.0018644 L8.19794997,9.8321316 C8.35288666,9.80481208 8.40622591,9.77877324 8.45752702,9.73849287 C8.50882813,9.6982125 8.54544319,9.64592078 8.56574834,9.58393681 C8.58315276,9.53080769 8.59021287,9.47985007 8.57467073,9.36880556 L8.56495938,9.30798783 L8.31350979,7.88194631 C8.28619027,7.72700962 8.26015142,7.67367036 8.21987106,7.62236925 C8.17959069,7.57106815 8.12729896,7.53445308 8.06531499,7.51414793 Z M3.70406914,4.46037071 C3.65094002,4.44296629 3.5999824,4.43590617 3.48893789,4.45144832 L3.42812016,4.46115966 L2.46551758,4.63089247 C2.31058089,4.65821199 2.25724163,4.68425083 2.20594052,4.7245312 C2.15463942,4.76481157 2.11802436,4.8171033 2.0977192,4.87908727 C2.08031479,4.93221638 2.07325467,4.983174 2.08879682,5.09421851 L2.09850816,5.15503624 L2.36163297,6.64154921 C2.38500759,6.75121265 2.40907046,6.79668244 2.44359649,6.84065482 C2.48387686,6.89195593 2.53616858,6.92857099 2.59815255,6.94887614 C2.65128167,6.96628056 2.70223928,6.97334067 2.81328379,6.95779853 L2.87410152,6.94808718 L3.83670411,6.77835438 C3.9916408,6.75103486 4.04498006,6.72499601 4.09628116,6.68471565 C4.14758227,6.64443528 4.18419733,6.59214355 4.20450248,6.53015958 C4.2219069,6.47703047 4.22896702,6.42607285 4.21342487,6.31502834 L4.20371353,6.25421061 L3.95226393,4.82816908 C3.92494441,4.67323239 3.89890557,4.61989313 3.8586252,4.56859203 C3.81834483,4.51729092 3.7660531,4.48067586 3.70406914,4.46037071 Z M7.41158068,3.80663639 C7.35845156,3.78923197 7.30749394,3.78217186 7.19644943,3.797714 L7.1356317,3.80742535 L6.17302912,3.97715816 C6.01809243,4.00447767 5.96475317,4.03051652 5.91345206,4.07079689 C5.86215096,4.11107725 5.8255359,4.16336898 5.80523074,4.22535295 C5.78782633,4.27848207 5.78076621,4.32943968 5.79630836,4.44048419 L5.8060197,4.50130192 L6.0574693,5.92734345 C6.08478882,6.08228014 6.11082766,6.1356194 6.15110803,6.1869205 C6.1913884,6.23822161 6.24368012,6.27483667 6.30566409,6.29514182 C6.35879321,6.31254624 6.40975082,6.31960636 6.52079534,6.30406421 L6.58161307,6.29435287 L7.6046871,6.11294485 C7.71435053,6.08957023 7.75982033,6.06550736 7.8037927,6.03098133 C7.85509381,5.99070096 7.89170887,5.93840923 7.91201402,5.87642527 C7.92941844,5.82329615 7.93647856,5.77233853 7.92093641,5.66129402 L7.91122507,5.60047629 L7.65977547,4.17443476 C7.63245595,4.01949808 7.60641711,3.96615882 7.56613674,3.91485771 C7.52585637,3.86355661 7.47356464,3.82694154 7.41158068,3.80663639 Z" id="Front"></path>
        </g>
    </g>
</svg>