<?xml version="1.0" encoding="UTF-8"?>
<svg width="173px" height="34px" viewBox="0 0 173 34" version="1.1" xmlns="http://www.w3.org/2000/svg" xmlns:xlink="http://www.w3.org/1999/xlink">
    <title>Logo Light</title>
    <g id="App-Icons" stroke="none" stroke-width="1" fill="none" fill-rule="evenodd">
        <g id="Logo-Light">
            <g id="Logotype" transform="translate(44.388640, 7.260000)" fill-rule="nonzero">
                <polygon id="Path" fill="#00BDB3" points="109.604503 19.74 117.125566 12.0369375 117.074816 14.039375 110.014441 6.77425 115.473566 6.77425 119.734378 11.3325625 118.188691 11.3325625 122.601316 6.77425 127.904253 6.77425 120.781316 14.1028125 120.852191 12.0999375 128.345253 19.74 122.871691 19.74 118.178191 14.781375 119.705941 14.781375 114.927566 19.74"></polygon>
                <path d="M102.93665,20.0375 C101.074067,20.0375 99.4669835,19.7622396 98.1154002,19.2117188 C96.7638169,18.6611979 95.7265773,17.8812813 95.0036814,16.8719688 C94.2807856,15.8626563 93.9193377,14.6703958 93.9193377,13.2951875 C93.9193377,11.9506042 94.2645981,10.7700104 94.9551189,9.75340625 C95.6456398,8.73680208 96.610546,7.93654167 97.8498377,7.352625 C99.0891294,6.76870833 100.506046,6.47675 102.100588,6.47675 C103.659546,6.47675 105.001504,6.74938542 106.126463,7.29465625 C107.251421,7.83992708 108.120515,8.61525 108.733744,9.620625 C109.346973,10.626 109.653588,11.8269375 109.653588,13.2234375 L109.653588,14.2086875 L97.6232127,14.2086875 L97.6232127,11.9293125 L106.42965,11.9293125 L105.835525,12.43025 C105.818317,11.4277917 105.506744,10.6656667 104.900806,10.143875 C104.294869,9.62208333 103.410025,9.3611875 102.246275,9.3611875 C101.360192,9.3611875 100.61965,9.49972917 100.02465,9.7768125 C99.4296502,10.0538958 98.9778585,10.4511458 98.6692752,10.9685625 C98.3606919,11.4859792 98.2064002,12.1089792 98.2064002,12.8375625 L98.2064002,13.1341875 C98.2064002,13.9079792 98.3662335,14.5635 98.6859002,15.10075 C99.0055669,15.638 99.5238585,16.0502708 100.240775,16.3375625 C100.957692,16.6248542 101.922671,16.7685 103.135713,16.7685 C104.116296,16.7685 105.048827,16.6709375 105.933306,16.4758125 C106.817786,16.2806875 107.578088,15.9894583 108.214213,15.602125 L109.3189,18.5110625 C108.618317,18.9698542 107.690015,19.3389583 106.533994,19.618375 C105.377973,19.8977917 104.178859,20.0375 102.93665,20.0375 Z" id="Path" fill="#00BDB3"></path>
                <path d="M81.6629029,20.0375 C80.2591112,20.0375 79.0309029,19.7547292 77.9782779,19.1891875 C76.9256529,18.6236458 76.1008925,17.8332292 75.5039967,16.8179375 C74.9071008,15.8026458 74.6086529,14.6125 74.6086529,13.2475 C74.6086529,11.8752083 74.9082675,10.6864479 75.5074967,9.68121875 C76.1067258,8.67598958 76.9349862,7.89060417 77.9922779,7.3250625 C79.0495696,6.75952083 80.2731112,6.47675 81.6629029,6.47675 C82.9132779,6.47675 84.0368508,6.71978125 85.0336217,7.20584375 C86.0303925,7.69190625 86.7475279,8.34852083 87.1850279,9.1756875 L86.8000279,9.1756875 L86.8000279,0 L91.3417154,0 L91.3417154,19.74 L86.8905904,19.74 L86.8905904,17.28125 L87.1955279,17.28125 C86.7653196,18.1101667 86.0500071,18.7767708 85.0495904,19.2810625 C84.0491737,19.7853542 82.9202779,20.0375 81.6629029,20.0375 Z M83.0200279,16.695 C84.2362779,16.695 85.1844862,16.3843021 85.8646529,15.7629063 C86.5448196,15.1415104 86.8849029,14.3030417 86.8849029,13.2475 C86.8849029,12.1689167 86.5448196,11.3262188 85.8646529,10.7194063 C85.1844862,10.1125938 84.2362779,9.8091875 83.0200279,9.8091875 C81.8058196,9.8091875 80.8581217,10.1125938 80.1769342,10.7194063 C79.4957467,11.3262188 79.1551529,12.1689167 79.1551529,13.2475 C79.1551529,14.3030417 79.4957467,15.1415104 80.1769342,15.7629063 C80.8581217,16.3843021 81.8058196,16.695 83.0200279,16.695 Z" id="Shape" fill="#00BDB3"></path>
                <path d="M67.2554937,4.1908125 L67.2554937,0.0459375 L72.2386187,0.0459375 L72.2386187,4.1908125 L67.2554937,4.1908125 Z M67.4891187,19.74 L67.4891187,6.77425 L72.0312437,6.77425 L72.0312437,19.74 L67.4891187,19.74 Z" id="Shape" fill="#FFFFFF"></path>
                <path d="M63.2143202,20.0375 C61.2304035,20.0375 59.7657265,19.5582188 58.820289,18.5996563 C57.8748515,17.6410938 57.4021327,16.2287708 57.4021327,14.3626875 L57.4021327,0 L61.9442577,0 L61.9442577,14.1203125 C61.9442577,14.5919375 62.0383202,15.0004896 62.2264452,15.3459688 C62.4145702,15.6914479 62.6934035,15.9510313 63.0629452,16.1247188 C63.4324869,16.2984063 63.8861744,16.38525 64.4240077,16.38525 C64.6497577,16.38525 64.8912577,16.3737292 65.1485077,16.3506875 C65.4057577,16.3276458 65.6113827,16.2954167 65.7653827,16.254 L65.7032577,19.746125 C65.3270077,19.8324583 64.9309244,19.9026042 64.5150077,19.9565625 C64.099091,20.0105208 63.6655285,20.0375 63.2143202,20.0375 Z" id="Path" fill="#FFFFFF"></path>
                <path d="M49.2394135,4.1908125 L49.2394135,0.0459375 L54.2225385,0.0459375 L54.2225385,4.1908125 L49.2394135,4.1908125 Z M49.4730385,19.74 L49.4730385,6.77425 L54.0151635,6.77425 L54.0151635,19.74 L49.4730385,19.74 Z" id="Shape" fill="#FFFFFF"></path>
                <path d="M42.0290473,20.0375 C40.3216306,20.0375 38.8396723,19.7575 37.5831723,19.1975 C36.3266723,18.6375 35.3551306,17.8462083 34.6685473,16.823625 C33.981964,15.8010417 33.6386723,14.6113333 33.6386723,13.2545 C33.6386723,11.8836667 33.981964,10.6903125 34.6685473,9.6744375 C35.3551306,8.6585625 36.3266723,7.87164583 37.5831723,7.3136875 C38.8396723,6.75572917 40.3216306,6.47675 42.0290473,6.47675 C43.1373806,6.47675 44.1988286,6.60770833 45.2133911,6.869625 C46.2279536,7.13154167 47.0747348,7.50254167 47.7537348,7.982625 L46.4486723,11.074 C45.866214,10.6790833 45.2203911,10.3752396 44.5112036,10.1624688 C43.8020161,9.94969792 43.0902765,9.8433125 42.3759848,9.8433125 C41.0559015,9.8433125 40.0452036,10.1492708 39.3438911,10.7611875 C38.6425786,11.3731042 38.2919223,12.2065417 38.2919223,13.2615 C38.2919223,14.30625 38.6425786,15.1339271 39.3438911,15.7445313 C40.0452036,16.3551354 41.0515265,16.6604375 42.3628598,16.6604375 C43.0707348,16.6604375 43.7788286,16.5551458 44.4871411,16.3445625 C45.1954536,16.1339792 45.8492973,15.8237917 46.4486723,15.414 L47.7537348,18.5215625 C47.0616098,18.9835625 46.2095056,19.3517188 45.1974223,19.6260313 C44.185339,19.9003438 43.129214,20.0375 42.0290473,20.0375 Z" id="Path" fill="#FFFFFF"></path>
                <path d="M22.1901994,20.0375 C21.0028244,20.0375 19.9605536,19.8454375 19.0633869,19.4613125 C18.1662203,19.0771875 17.4662932,18.5573646 16.9636057,17.9018438 C16.4609182,17.2463229 16.2095744,16.52 16.2095744,15.722875 C16.2095744,14.8805417 16.482939,14.188125 17.0296682,13.645625 C17.5763973,13.103125 18.4743661,12.6963958 19.7235744,12.4254375 C20.9727828,12.1544792 22.6657619,12.019 24.8025119,12.019 L27.3426369,12.019 L27.3426369,14.2725625 L24.7946369,14.2725625 C23.9374286,14.2725625 23.2383036,14.3028229 22.6972619,14.3633438 C22.1562203,14.4238646 21.7304598,14.5061875 21.4199807,14.6103125 C21.1095015,14.7144375 20.8930848,14.8497708 20.7707307,15.0163125 C20.6483765,15.1828542 20.5871994,15.3753542 20.5871994,15.5938125 C20.5871994,16.0266458 20.7954494,16.3811667 21.2119494,16.657375 C21.6284494,16.9335833 22.2475119,17.0716875 23.0691369,17.0716875 C23.7720536,17.0716875 24.4097098,16.9588125 24.9821057,16.7330625 C25.5545015,16.5073125 26.0069494,16.1882292 26.3394494,15.7758125 C26.6719494,15.3633958 26.8381994,14.8920625 26.8381994,14.3618125 L26.8381994,11.71625 C26.8381994,11.0425 26.5910119,10.5421458 26.0966369,10.2151875 C25.6022619,9.88822917 24.8130119,9.72475 23.7288869,9.72475 C22.7135953,9.72475 21.7279807,9.83879167 20.7720432,10.066875 C19.8161057,10.2949583 18.9104078,10.6369375 18.0549494,11.0928125 L16.9139494,8.094625 C17.4952411,7.763875 18.1786161,7.47855208 18.9640744,7.23865625 C19.7495328,6.99876042 20.5720328,6.81180208 21.4315744,6.67778125 C22.2911161,6.54376042 23.1076369,6.47675 23.8811369,6.47675 C25.5179703,6.47675 26.8719598,6.68828125 27.9431057,7.11134375 C29.0142515,7.53440625 29.8142203,8.17847917 30.3430119,9.0435625 C30.8718036,9.90864583 31.1361994,11.0222292 31.1361994,12.3843125 L31.1361994,19.74 L26.8928869,19.74 L26.8928869,16.9623125 L27.1475119,16.9553125 C26.9570536,17.5917292 26.637314,18.1414479 26.1882932,18.6044688 C25.7392723,19.0674896 25.1826265,19.4220833 24.5183557,19.66825 C23.8540848,19.9144167 23.0780328,20.0375 22.1901994,20.0375 Z" id="Path" fill="#FFFFFF"></path>
                <polygon id="Path" fill="#FFFFFF" points="0 19.74 0 0 15.4371875 0 15.4371875 3.6155 4.778375 3.6155 4.778375 8.0863125 14.732375 8.0863125 14.732375 11.70225 4.778375 11.70225 4.778375 19.74"></polygon>
            </g>
            <g id="Logomark" fill="#00BDB3">
                <path d="M13.1683369,0.103764969 L27.814624,2.68630054 C28.5575255,2.81729413 28.8882261,2.94309176 29.1485141,3.11698138 L29.2855606,3.21692001 C29.5762669,3.44517543 29.7837522,3.74149522 29.8988148,4.09273771 C30.0050263,4.41696154 30.0432552,4.7269143 29.9267454,5.46323163 L25.8869863,28.373844 L25.8155249,28.7039807 C25.6954131,29.1980598 25.5675846,29.428514 25.3920035,29.6521342 C25.1637481,29.9428405 24.8674283,30.1503258 24.5161858,30.2653884 C24.191962,30.3715999 23.8820092,30.4098288 23.1456919,30.293319 L22.286883,30.1428494 L22.4002833,30.0927635 L22.4366048,30.0711675 L22.5452982,29.9926874 C22.6805675,29.8864773 22.772263,29.7555225 22.825803,29.5920849 C22.8654186,29.4711535 22.8844167,29.3551188 22.8748515,29.1688423 L22.8554709,28.956369 L22.838088,28.827354 L22.838088,28.827354 L22.7868333,28.5133312 L18.8183111,6.00583663 L18.7513181,5.66018854 C18.6626048,5.25053 18.6033226,5.11508455 18.4827764,4.96155683 C18.4031188,4.86010486 18.3095423,4.78316314 18.1987825,4.72844582 L18.0821739,4.68105197 C17.9007768,4.62162859 17.7303972,4.60859446 17.317443,4.66876698 L17.0034202,4.72002172 L9.5181134,6.04 L10.1981889,2.183485 L10.2338257,1.99083855 L10.3052871,1.66070184 C10.4253989,1.16662282 10.5532273,0.936168575 10.7288084,0.712548367 C10.9570638,0.421842097 11.2533836,0.214356746 11.6046261,0.099294213 C11.9558686,-0.0157683202 12.2903624,-0.0510456356 13.1683369,0.103764969 Z" id="Back" opacity="0.4"></path>
                <path d="M18.3934829,3.73074321 C18.7447253,3.84580575 19.0410451,4.0532911 19.2693006,4.34399737 C19.4624398,4.5899796 19.5977983,4.84423101 19.728664,5.44854008 L19.79992,5.814934 L23.771641,28.339683 C23.9264516,29.2176576 23.8911743,29.5521514 23.7761118,29.9033939 C23.6610492,30.2546364 23.4535639,30.5509562 23.1628576,30.7792116 L23.0258111,30.8791502 C22.7891856,31.0372317 22.494368,31.1555677 21.8845674,31.2741943 L16.584,32.208449 L15.5360131,26.2635859 C15.4862526,25.9813798 15.4384914,25.85779 15.371958,25.7595873 L15.3370308,25.7119846 C15.251435,25.6029698 15.1403151,25.5251628 15.0085992,25.4820143 C14.8956998,25.4450299 14.7874149,25.4300272 14.5514453,25.4630543 L14.4222076,25.4836909 L11.8842732,25.9311972 C11.5550328,25.9892511 11.4416868,26.0445837 11.332672,26.1301795 C11.2236571,26.2157753 11.1458501,26.3268952 11.1027017,26.4586111 C11.0657173,26.5715105 11.0507146,26.6797954 11.0837416,26.915765 L11.1043782,27.0450027 L12.152,32.990449 L7.04563397,33.8923666 C6.16765941,34.0471772 5.83316562,34.0118999 5.48192313,33.8968374 C5.13068064,33.7817748 4.83436085,33.5742895 4.60610543,33.2835832 C4.43052434,33.059963 4.30269589,32.8295088 4.18258408,32.3354297 L4.11112269,32.005293 C4.09926003,31.944313 4.08739447,31.8801831 4.07548596,31.8126466 L0.103764969,9.28789755 C-0.0510456356,8.40992299 -0.0157683202,8.07542919 0.099294213,7.72418671 C0.214356746,7.37294422 0.421842097,7.07662443 0.712548367,6.84836901 L0.849594902,6.74843038 C1.03889526,6.6219652 1.26543862,6.52093711 1.66070184,6.42484765 L1.99083855,6.35338627 L2.183485,6.31774954 L16.829772,3.73521397 C17.7077466,3.58040336 18.0422404,3.61568068 18.3934829,3.73074321 Z M9.26033233,17.3567498 C9.14743296,17.3197654 9.03914803,17.3047626 8.80317844,17.3377897 L8.67394077,17.3584263 L6.49990845,17.7439183 C6.26687365,17.7935894 6.17025034,17.844723 6.07680904,17.9180908 C5.96779418,18.0036866 5.88998718,18.1148065 5.84683873,18.2465225 C5.80985434,18.3594218 5.7948516,18.4677068 5.82787866,18.7036764 L5.84851526,18.832914 L6.38284565,21.8632523 C6.44089963,22.1924927 6.49623217,22.3058387 6.58182796,22.4148535 C6.66742374,22.5238684 6.77854366,22.6016754 6.91025959,22.6448238 C7.02315896,22.6818082 7.1314439,22.696811 7.36741348,22.6637839 L7.49665116,22.6431473 L9.54218166,22.2824651 C9.87142212,22.2244111 9.98476804,22.1690786 10.0937829,22.0834828 C10.2027977,21.997887 10.2806048,21.8867671 10.3237532,21.7550511 C10.3607376,21.6421518 10.3757403,21.5338668 10.3427133,21.2978972 L10.3220767,21.1686596 L9.78774627,18.1383213 C9.7296923,17.8090809 9.67435975,17.6957349 9.58876397,17.5867201 C9.50316819,17.4777052 9.39204827,17.3998982 9.26033233,17.3567498 Z M17.1387944,15.9675644 C17.025895,15.93058 16.9176101,15.9155772 16.6816405,15.9486043 L16.5524028,15.9692409 L14.5068723,16.3299231 C14.1776318,16.3879771 14.0642859,16.4433096 13.9552711,16.5289054 C13.8462562,16.6145012 13.7684492,16.7256211 13.7253008,16.857337 C13.6883164,16.9702364 13.6733136,17.0785213 13.7063407,17.3144909 L13.7269773,17.4437286 L14.2613077,20.4740669 C14.3193617,20.8033073 14.3746942,20.9166532 14.46029,21.0256681 C14.5458858,21.1346829 14.6570057,21.21249 14.7887216,21.2556384 C14.901621,21.2926228 15.0099059,21.3076255 15.2458755,21.2745985 L15.3751132,21.2539619 L17.4206437,20.8932797 C17.7498841,20.8352257 17.8632301,20.7798931 17.9722449,20.6942974 C18.0812598,20.6087016 18.1590668,20.4975816 18.2022152,20.3658657 C18.2391996,20.2529663 18.2542024,20.1446814 18.2211753,19.9087118 L18.2005387,19.7794741 L17.6662083,16.7491359 C17.6081543,16.4198954 17.5528218,16.3065495 17.467226,16.1975347 C17.3816302,16.0885198 17.2705103,16.0107128 17.1387944,15.9675644 Z M7.87114691,9.47828775 C7.75824754,9.44130337 7.64996261,9.42630062 7.41399302,9.45932768 L7.28475535,9.47996428 L5.23922485,9.8406465 C4.90998439,9.89870048 4.79663846,9.95403302 4.68762361,10.0396288 C4.57860876,10.1252246 4.50080176,10.2363445 4.45765331,10.3680604 C4.42066892,10.4809598 4.40566618,10.5892447 4.43869323,10.8252143 L4.45932984,10.954452 L5.01847006,14.1132921 C5.06814113,14.3463269 5.11927472,14.4429502 5.19264254,14.5363915 C5.27823832,14.6454063 5.38935824,14.7232133 5.52107417,14.7663618 C5.63397354,14.8033462 5.74225848,14.8183489 5.97822806,14.7853219 L6.10746574,14.7646853 L8.15299623,14.404003 C8.4822367,14.3459491 8.59558262,14.2906165 8.70459747,14.2050207 C8.81361232,14.119425 8.89141933,14.008305 8.93456778,13.8765891 C8.97155216,13.7636897 8.98655491,13.6554048 8.95352785,13.4194352 L8.93289125,13.2901975 L8.39856085,10.2598593 C8.34050687,9.93061883 8.28517433,9.81727291 8.19957855,9.70825806 C8.11398277,9.59924321 8.00286285,9.5214362 7.87114691,9.47828775 Z M15.7496089,8.08910233 C15.6367096,8.05211794 15.5284246,8.0371152 15.292455,8.07014226 L15.1632174,8.09077886 L13.1176869,8.45146108 C12.7884464,8.50951506 12.6751005,8.5648476 12.5660856,8.65044338 C12.4570708,8.73603916 12.3792638,8.84715909 12.3361153,8.97887502 C12.2991309,9.09177439 12.2841282,9.20005932 12.3171553,9.43602891 L12.3377919,9.56526659 L12.8721223,12.5956048 C12.9301762,12.9248453 12.9855088,13.0381912 13.0711046,13.1472061 C13.1567003,13.2562209 13.2678203,13.3340279 13.3995362,13.3771764 C13.5124356,13.4141608 13.6207205,13.4291635 13.8566901,13.3961365 L13.9859278,13.3754998 L16.1599601,12.9900078 C16.3929949,12.9403367 16.4896182,12.8892031 16.5830595,12.8158353 C16.6920743,12.7302395 16.7698814,12.6191196 16.8130298,12.4874037 C16.8500142,12.3745043 16.8650169,12.2662194 16.8319899,12.0302498 L16.8113533,11.9010121 L16.2770229,8.87067387 C16.2189689,8.54143341 16.1636364,8.42808749 16.0780406,8.31907264 C15.9924448,8.21005779 15.8813249,8.13225078 15.7496089,8.08910233 Z" id="Front"></path>
            </g>
        </g>
    </g>
</svg>